<svg xmlns="http://www.w3.org/2000/svg" width="94.854" height="96.934"><g data-paper-data="{&quot;isPaintingLayer&quot;:true}" stroke-miterlimit="10" style="mix-blend-mode:normal"><path d="M13.86 39.02c0-17.408 14.754-31.52 32.955-31.52 18.2 0 32.954 14.112 32.954 31.52 0 2.799-.381 5.512-1.097 8.095a24.983 24.983 0 0 0-7.155-4.225 25.19 25.19 0 0 0 .298-3.87c0-13.806-11.193-25-25-25-13.808 0-25 11.194-25 25 0 .82.039 1.63.116 2.428a25.038 25.038 0 0 0-7.197 4.814 30.303 30.303 0 0 1-.874-7.241z" fill="#006c2b"/><path d="M13.765 35.175c0-17.409 14.755-31.522 32.955-31.522 18.2 0 32.954 14.113 32.954 31.522 0 2.798-.38 5.511-1.096 8.094a24.983 24.983 0 0 0-7.156-4.224 25.19 25.19 0 0 0 .298-3.87c0-13.807-11.193-25-25-25s-25 11.193-25 25c0 .819.04 1.629.116 2.427a25.038 25.038 0 0 0-7.197 4.814 30.303 30.303 0 0 1-.874-7.241z" fill="#004f08"/><g fill="#00a83b" stroke-width="0"><path d="M53.128 32.02a7.046 7.046 0 1 1 12.465-6.573 7.046 7.046 0 0 1-12.465 6.572zm3.018 1.54 8.888-4.483-8.552-5.501z"/><path d="m63.173 29.025-6.06 3.062.172-6.946zM53.987 24.44l-1.865-3.535 4.867-2.566 1.84 3.487c.297.565-4.552 3.165-4.842 2.615zM59.647 23.21l2.98-4.625 4.626 2.98-2.981 4.626zM49.176 25.58l5.498.216-.216 5.498-5.498-.216.115-2.918.1-2.58zM65.76 26.23l4 .158-.215 5.498-3.932-.154c-.64-.025-.473-5.525.146-5.501z"/></g><path d="M13.928 31.522C13.928 14.112 28.682 0 46.882 0c18.2 0 32.955 14.113 32.955 31.522 0 2.798-.381 5.511-1.097 8.094a24.983 24.983 0 0 0-7.155-4.225 25.19 25.19 0 0 0 .297-3.87c0-13.806-11.192-25-25-25-13.807 0-25 11.194-25 25 0 .82.04 1.63.117 2.428a25.038 25.038 0 0 0-7.197 4.814 30.303 30.303 0 0 1-.874-7.241z" fill="#00260f"/><path d="m4.303 49.18 1.891-11.721s4.992-4.012 6.232-4.166l13.983-1.729 3.458 27.966-14.457 1.787c-1.202.149-6.247-2.642-6.247-2.642z" fill="#00260f"/><path d="M85.222 58.376s-4.869 3.088-6.077 3.012l-14.538-.92 1.778-28.122 14.061.89c1.247.078 6.47 3.784 6.47 3.784l2.59 11.587z" data-paper-data="{&quot;index&quot;:null}" fill="#00260f"/><path d="m0 96.43 21.328-6.638 8.998-6.374 2.213-16.814 28.718-.756 2.37 15.643 7.299 6.63 23.928 8.813z" fill="#1cc657"/><path d="m31.79 67.25-5.932-15.534-1.625-20.998 45.343.503-1.784 19.258-4.766 16.772-7.241 9.724-8.383 3.879-7.336-2.124z" fill="#19b550"/><path d="m31.292 52.164-.548-2.193 6.4 1.38 6.21-1.198-.73 2.376-5.139.978z" fill="#24ff70"/><path d="m56.663 53.755-5.138-.978-.731-2.376 6.21 1.198 6.4-1.38-.548 2.193z" data-paper-data="{&quot;index&quot;:null}" fill="#24ff70"/><g fill="#19b550" stroke-width="0"><path d="M28.018 27.151c2.078-6.635 9.14-10.33 15.776-8.252 6.635 2.078 10.33 9.141 8.252 15.776-2.078 6.635-9.141 10.33-15.776 8.252-6.635-2.078-10.33-9.14-8.252-15.776zm11.734-4.846c-4.67.194-8.643 3.968-8.441 8.97.202 5.004 4.058 8.689 9.146 8.477 5.089-.212 8.172-4.194 7.97-9.188-.202-4.995-4.005-8.453-8.675-8.259z"/><path d="M34.335 29.335c.976-3.118 4.336-4.841 7.504-3.849 3.167.992 4.944 4.324 3.968 7.442-.977 3.118-4.336 4.841-7.504 3.85-3.168-.993-4.945-4.325-3.968-7.443zm5.584-2.255c-2.227.081-4.113 1.849-4.006 4.203.108 2.355 1.954 4.098 4.38 4.009 2.425-.089 3.887-1.956 3.78-4.307-.107-2.35-1.928-3.986-4.154-3.905zM39.846 20.738l1.81-5.781 6.323 1.98-1.81 5.78zM47.122 23.506 52.49 20.7l3.071 5.87-5.368 2.808zM26.109 23.006l5.78 1.81-1.98 6.324-5.78-1.81zM35.86 15.676l2.809 5.368-5.871 3.071-2.808-5.368z"/></g></g></svg>